<?xml version="1.0" standalone="no"?><!DOCTYPE svg PUBLIC "-//W3C//DTD SVG 1.1//EN" "http://www.w3.org/Graphics/SVG/1.1/DTD/svg11.dtd"><svg class="icon" width="200px" height="200.00px" viewBox="0 0 1024 1024" version="1.1" xmlns="http://www.w3.org/2000/svg"><path d="M461.03 292.92c66.01 66.01 58.48 180.56 58.48 180.56S404.96 481.01 338.95 415c-46.78-46.78-56.63-117.93-58.39-155.43-0.66-14.08 10.97-25.71 25.05-25.05 37.49 1.77 108.65 11.62 155.43 58.39z" fill="#52E217" /><path d="M508.05 488.78c-32.79 0-122.17-5.63-179.71-63.17-50.2-50.2-60.88-125.13-62.77-165.33-0.51-10.92 3.63-21.62 11.37-29.37a39.037 39.037 0 0 1 29.37-11.37c40.19 1.9 115.13 12.58 165.33 62.77 70.01 70.01 63.17 187.2 62.84 192.15a14.986 14.986 0 0 1-13.98 13.98c-0.88 0.06-5.34 0.32-12.45 0.32z m11.46-15.29zM304.45 249.51c-3.18 0-5.29 1.63-6.29 2.63-1.05 1.05-2.78 3.31-2.62 6.74 1.69 35.87 10.96 102.47 54.02 145.53 47.38 47.38 123.99 53.76 155.15 54.28-0.52-31.15-6.9-107.76-54.28-155.15-43.06-43.06-109.66-52.33-145.53-54.02-0.15 0-0.3-0.01-0.45-0.01z" fill="#333333" /><path d="M700.07 415.73c-66.01 66.01-180.56 58.48-180.56 58.48s-7.53-114.55 58.48-180.56c46.78-46.78 117.93-56.63 155.43-58.39 14.08-0.66 25.71 10.97 25.05 25.05-1.77 37.49-11.62 108.65-58.39 155.43z" fill="#52E217" /><path d="M530.97 489.51c-7.11 0-11.56-0.27-12.45-0.32a14.986 14.986 0 0 1-13.98-13.98c-0.33-4.95-7.17-122.14 62.84-192.15 50.2-50.2 125.13-60.88 165.33-62.77 10.92-0.51 21.62 3.63 29.37 11.37s11.89 18.45 11.37 29.37c-1.9 40.2-12.57 115.12-62.77 165.33-57.53 57.53-146.92 63.17-179.71 63.17z m203.6-239.27c-0.15 0-0.29 0-0.45 0.01-35.87 1.69-102.47 10.96-145.53 54.02-47.38 47.38-53.76 123.99-54.28 155.15 31.15-0.52 107.76-6.9 155.15-54.28 43.06-43.06 52.33-109.66 54.02-145.53 0.16-3.42-1.57-5.69-2.62-6.74-1-1-3.12-2.63-6.29-2.63z" fill="#333333" /><path d="M519.51 639.6c-8.28 0-15-6.72-15-15V485.88c0-8.28 6.72-15 15-15s15 6.72 15 15V624.6c0 8.28-6.72 15-15 15z" fill="#333333" /><path d="M822.02 739.4c-0.63 0-1.27-0.04-1.92-0.12l-40.22-5.13c-36.59-4.67-46.59-15.96-64.74-36.45-5.13-5.8-10.96-12.37-18.55-20.15-11.11-11.38-43.37-20.21-88.51-24.23-37.12-3.3-70.71-2.38-71.04-2.37h-34.08c-0.33 0-33.92-0.92-71.04 2.37-45.14 4.01-77.4 12.84-88.51 24.23-7.6 7.79-13.42 14.36-18.55 20.15-18.15 20.49-28.15 31.78-64.74 36.45l-40.22 5.13c-8.22 1.05-15.73-4.76-16.78-12.98-1.05-8.22 4.76-15.73 12.98-16.78l40.22-5.13c25.41-3.24 29.79-8.19 46.08-26.58 5.09-5.75 11.43-12.91 19.54-21.21 17.01-17.43 52.21-28.29 107.61-33.18 37.62-3.33 70.73-2.55 74.05-2.46h32.8c3.33-0.09 36.43-0.86 74.05 2.46 55.41 4.9 90.61 15.75 107.61 33.18 8.1 8.3 14.44 15.46 19.54 21.21 16.29 18.4 20.67 23.34 46.08 26.58l40.22 5.13c8.22 1.05 14.03 8.56 12.98 16.78-0.97 7.57-7.42 13.1-14.86 13.1z" fill="#333333" /><path d="M646.84 734.9c-0.66 0-1.32-0.04-1.99-0.13-36.57-4.85-74-7.65-111.23-8.32-8.28-0.15-14.88-6.99-14.73-15.27 0.15-8.28 7.02-14.87 15.27-14.73 38.37 0.69 76.93 3.58 114.63 8.58 8.21 1.09 13.99 8.63 12.9 16.84-1 7.54-7.44 13.03-14.85 13.03zM392.52 734.9c-7.13 0-13.46-5.1-14.75-12.37-1.46-8.15 3.97-15.94 12.12-17.4 0.66-0.12 16.45-2.92 43.95-5.35 8.24-0.73 15.53 5.37 16.26 13.62 0.73 8.25-5.37 15.53-13.62 16.26-26.02 2.3-41.16 4.97-41.31 4.99-0.89 0.16-1.77 0.23-2.65 0.23zM758.51 827c-0.88 0-1.77-0.08-2.66-0.24-27.81-4.98-57.3-9.02-87.63-12.02-8.24-0.81-14.27-8.16-13.45-16.4 0.81-8.24 8.14-14.27 16.4-13.45 31.11 3.08 61.38 7.23 89.96 12.34 8.16 1.46 13.58 9.25 12.12 17.41-1.3 7.26-7.62 12.36-14.75 12.36zM266.57 827c-7.19 0-13.54-5.18-14.77-12.5-1.38-8.17 4.12-15.91 12.29-17.29 1.48-0.25 149.8-24.89 324.46-17.97 8.28 0.33 14.72 7.31 14.39 15.58-0.33 8.28-7.32 14.7-15.58 14.39-171.58-6.81-316.83 17.33-318.27 17.57-0.85 0.14-1.69 0.21-2.52 0.21z" fill="#333333" /></svg>