<?xml version="1.0" standalone="no"?><!DOCTYPE svg PUBLIC "-//W3C//DTD SVG 1.1//EN" "http://www.w3.org/Graphics/SVG/1.1/DTD/svg11.dtd"><svg class="icon" width="200px" height="200.00px" viewBox="0 0 1024 1024" version="1.1" xmlns="http://www.w3.org/2000/svg"><path d="M269.52 269.78c-3.84 0-7.68-1.46-10.61-4.39l-45.89-45.89c-5.86-5.86-5.86-15.36 0-21.21 5.86-5.86 15.36-5.86 21.21 0l45.89 45.89c5.86 5.86 5.86 15.36 0 21.21a14.953 14.953 0 0 1-10.61 4.39zM197.81 406.13h-64.89c-8.28 0-15-6.72-15-15s6.72-15 15-15h64.89c8.28 0 15 6.72 15 15s-6.72 15-15 15zM223.63 609.9c-3.84 0-7.68-1.46-10.61-4.39-5.86-5.86-5.86-15.36 0-21.21l45.89-45.89c5.86-5.86 15.36-5.86 21.21 0 5.86 5.86 5.86 15.36 0 21.21l-45.89 45.89a14.953 14.953 0 0 1-10.61 4.39zM758.4 272.05c-3.84 0-7.68-1.46-10.61-4.39-5.86-5.86-5.86-15.36 0-21.21l45.89-45.89c5.86-5.86 15.36-5.86 21.21 0 5.86 5.86 5.86 15.36 0 21.21L769 267.66a14.953 14.953 0 0 1-10.61 4.39zM895 408.39h-64.89c-8.28 0-15-6.72-15-15s6.72-15 15-15H895c8.28 0 15 6.72 15 15s-6.72 15-15 15zM804.29 612.16c-3.84 0-7.68-1.46-10.61-4.39l-45.89-45.89c-5.86-5.86-5.86-15.36 0-21.21 5.86-5.86 15.36-5.86 21.21 0l45.89 45.89c5.86 5.86 5.86 15.36 0 21.21a14.953 14.953 0 0 1-10.61 4.39zM607.64 627.87c-5.62 0-11.01-3.18-13.57-8.6-3.54-7.49-0.33-16.43 7.16-19.97 34.71-16.39 64.11-42.14 85-74.46C707.67 491.68 719 453.18 719 413.5c0-113.23-92.12-205.36-205.36-205.36S308.28 300.26 308.28 413.5c0 39.38 11.17 77.62 32.3 110.61 20.59 32.14 49.6 57.88 83.9 74.44 7.46 3.6 10.59 12.57 6.99 20.03-3.6 7.46-12.57 10.59-20.03 6.99-39.3-18.97-72.54-48.46-96.12-85.27-24.23-37.83-37.04-81.67-37.04-126.8 0-62.87 24.48-121.97 68.93-166.42 44.45-44.45 103.56-68.93 166.42-68.93s121.97 24.48 166.42 68.93c44.45 44.45 68.93 103.56 68.93 166.42 0 45.47-13 89.61-37.58 127.63-23.94 37.02-57.61 66.52-97.39 85.3-2.07 0.98-4.25 1.44-6.4 1.44z" fill="#333333" /><path d="M611.02 705H416.27c-28.95 0-52.5-23.55-52.5-52.5s23.55-52.5 52.5-52.5h194.75c28.95 0 52.5 23.55 52.5 52.5s-23.55 52.5-52.5 52.5z m-194.75-75c-12.41 0-22.5 10.09-22.5 22.5s10.09 22.5 22.5 22.5h194.75c12.41 0 22.5-10.09 22.5-22.5s-10.09-22.5-22.5-22.5H416.27z" fill="#333333" /><path d="M611.02 780H416.27c-28.95 0-52.5-23.55-52.5-52.5s23.55-52.5 52.5-52.5h194.75c28.95 0 52.5 23.55 52.5 52.5s-23.55 52.5-52.5 52.5z m-194.75-75c-12.41 0-22.5 10.09-22.5 22.5s10.09 22.5 22.5 22.5h194.75c12.41 0 22.5-10.09 22.5-22.5s-10.09-22.5-22.5-22.5H416.27z" fill="#333333" /><path d="M543.83 855h-60.38c-28.95 0-52.5-23.55-52.5-52.5s23.55-52.5 52.5-52.5h60.38c28.95 0 52.5 23.55 52.5 52.5s-23.55 52.5-52.5 52.5z m-60.38-75c-12.41 0-22.5 10.09-22.5 22.5s10.09 22.5 22.5 22.5h60.38c12.41 0 22.5-10.09 22.5-22.5s-10.09-22.5-22.5-22.5h-60.38z" fill="#333333" /><path d="M598.32 397.23l-53.78-11.02 22.52-88.53c5.3-20.84-20.62-35.07-35.35-19.41L420.88 396.05c-11.17 11.88-4.99 31.41 10.99 34.68l53.78 11.02-22.52 88.53c-5.3 20.84 20.62 35.07 35.35 19.41l110.83-117.78c11.17-11.88 4.99-31.41-10.99-34.68z" fill="#52E217" /><path d="M483.47 571.35c-5.89 0-11.85-1.48-17.4-4.53-14.55-7.99-21.57-24.16-17.48-40.24l18.65-73.29-38.38-7.86c-12.91-2.64-22.99-11.72-26.97-24.28-3.98-12.56-0.97-25.78 8.06-35.38l110.83-117.78c11.37-12.09 28.79-14.84 43.33-6.85 14.55 7.99 21.57 24.16 17.48 40.24l-18.65 73.29 38.38 7.86c12.91 2.64 22.99 11.72 26.97 24.28 3.98 12.56 0.96 25.78-8.06 35.38L509.4 559.97c-7.04 7.48-16.38 11.38-25.94 11.38zM546.7 286.6c-1.29 0-2.69 0.5-4.06 1.95L431.81 406.33c-2.04 2.17-1.7 4.54-1.31 5.76 0.39 1.22 1.47 3.35 4.39 3.95l53.78 11.02c4.02 0.82 7.52 3.25 9.7 6.73 2.18 3.47 2.84 7.69 1.83 11.66l-22.52 88.53c-0.92 3.62 1.04 5.56 2.84 6.55 1.8 0.99 4.49 1.6 7.05-1.12L598.4 421.63c2.04-2.17 1.7-4.54 1.31-5.75-0.39-1.22-1.47-3.35-4.39-3.95l-53.78-11.02c-4.02-0.82-7.52-3.25-9.7-6.73a14.986 14.986 0 0 1-1.83-11.66l22.52-88.53c0.92-3.62-1.04-5.56-2.84-6.55-0.84-0.46-1.87-0.84-2.99-0.84z" fill="#333333" /></svg>